# xmcd
# 
# Track frame offsets:
#     150
#     33140
#     45820
#     78787
#     92037
#     117667
#     138480
#     161540
# 
# Disc length: 2414
# 
# Revision: 8
# Processed by: cddbd v1.5.2PL0 Copyright (c) Steve Scherf et al.
# Submitted via: fre:ac v1.0.31
# 
DISCID=56096c08
DTITLE=Columbia Blues - Albert King I'll Play The Blues For You
DYEAR=1972
DGENRE=Blues
TTITLE0=I'll Play The Blues For You (Parts 1 and 2)
TTITLE1=Little Brother
TTITLE2=Breaking Up Somebody's Home
TTITLE3=High Cost Of Loving
TTITLE4=I'll Be Doggone
TTITLE5=Answer To The Laundromat Blues
TTITLE6=Don't Burn Down The Bridge ('Cause You Might Wanna Come Back Across)
TTITLE7=Angel Of Mercy
EXTD=
EXTT0=
EXTT1=
EXTT2=
EXTT3=
EXTT4=
EXTT5=
EXTT6=
EXTT7=
PLAYORDER=
